# xmcd
#
# Track frame offsets:
# 150
# 13042
# 27025
# 41270
# 54630
# 69730
# 84270
# 95792
# 110022
# 124587
# 138822
# 152985
#
# Disc length: 2218 seconds
#
#
# Revision: 0
# Processed by: cddbd v1.5.1PL0 Copyright (c) Steve Scherf et al.
# Submitted via: FreeRIP 2.80 
#
DISCID=9808a80c
DTITLE=megaloi tou rembetikou 1
DYEAR=1900
DGENRE=
TTITLE0=kouklaki-kariphs
TTITLE1=pono kai den me lupasai-kabouras
TTITLE2=kalliopaki-tounta
TTITLE3=neba manes- roukounas
TTITLE4=gkarsona-tountas
TTITLE5=megariwtissa-roukounas
TTITLE6=pagratiwtissa-arapakhs
TTITLE7=lela-eskenazu
TTITLE8=san ta matia sou-eskenazu
TTITLE9=xariklaki-eskenazu
TTITLE10=sousta-organikon
TTITLE11=gerontaki kotsonato-soprano
EXTD=
EXTT0=
EXTT1=
EXTT2=
EXTT3=
EXTT4=
EXTT5=
EXTT6=
EXTT7=
EXTT8=
EXTT9=
EXTT10=
EXTT11=
PLAYORDER=
